<?xml version="1.0" standalone="no"?>
<!DOCTYPE svg PUBLIC "-//W3C//DTD SVG 20010904//EN"
 "http://www.w3.org/TR/2001/REC-SVG-20010904/DTD/svg10.dtd">
<svg version="1.0" xmlns="http://www.w3.org/2000/svg"
 width="700.000000pt" height="700.000000pt" viewBox="0 0 700.000000 700.000000"
 preserveAspectRatio="xMidYMid meet">
<metadata>
Created by potrace 1.11, written by Peter Selinger 2001-2013
</metadata>
<g transform="translate(0.000000,700.000000) scale(0.100000,-0.100000)"
fill="#000000" stroke="none">
<path d="M4900 6000 c-732 -38 -1385 -230 -1872 -553 -380 -251 -662 -564
-848 -941 -240 -487 -285 -1024 -126 -1501 34 -100 103 -249 153 -328 13 -21
23 -40 21 -42 -2 -2 -25 14 -50 36 -74 62 -184 126 -262 150 l-72 22 -28 191
c-36 242 -88 498 -120 603 -35 110 -84 156 -179 169 -37 5 -47 2 -74 -20 -33
-28 -56 -97 -46 -139 9 -34 43 -66 82 -77 50 -14 58 -13 81 10 25 25 29 120 6
120 -11 0 -13 -9 -9 -34 6 -41 -11 -76 -38 -76 -35 0 -87 27 -94 50 -10 31 5
100 26 121 34 34 122 17 173 -34 45 -45 98 -262 155 -632 17 -110 33 -212 36
-227 4 -26 2 -28 -33 -28 -21 0 -56 -11 -80 -25 l-43 -24 -16 42 c-39 98 -159
325 -223 421 -83 124 -159 197 -235 225 -70 26 -108 26 -162 0 -49 -24 -73
-61 -73 -114 0 -90 96 -166 172 -134 24 10 28 17 28 51 0 42 -25 102 -40 93
-5 -3 -2 -26 7 -50 21 -63 13 -79 -38 -72 -49 6 -86 38 -100 86 -31 105 92
166 216 107 61 -28 145 -115 214 -220 54 -82 161 -289 206 -395 25 -61 26 -64
9 -99 -69 -146 -18 -395 115 -558 66 -81 200 -188 333 -266 59 -35 107 -66
107 -70 1 -3 -89 -36 -199 -73 l-201 -67 6 -31 c9 -54 45 -329 45 -347 0 -11
-19 -29 -45 -44 -25 -15 -45 -33 -45 -41 0 -8 2 -15 5 -15 9 0 115 73 115 79
0 3 -11 89 -25 191 -19 143 -22 186 -12 192 6 4 94 35 195 69 100 33 180 65
176 70 -3 5 -1 9 5 9 14 0 121 -53 121 -60 0 -3 -65 -45 -145 -95 -79 -49
-144 -93 -145 -97 0 -4 20 -91 45 -194 25 -102 45 -195 45 -205 0 -13 -18 -31
-50 -51 -27 -17 -50 -37 -50 -44 0 -20 4 -18 73 29 l63 42 -48 200 c-26 110
-46 205 -44 210 2 6 64 48 137 94 74 47 137 89 140 93 3 5 48 -9 100 -31 l94
-39 94 -152 93 -152 -27 -152 -28 -152 49 -47 c46 -44 74 -58 74 -38 0 5 -21
28 -47 50 l-47 42 27 152 26 151 -85 139 c-52 86 -78 137 -67 132 10 -4 117
-40 238 -80 448 -148 927 -249 1150 -243 92 3 100 5 100 23 0 16 -53 47 -280
160 -294 146 -419 214 -411 222 2 2 19 -3 37 -13 62 -32 244 -92 364 -120 111
-26 135 -28 320 -28 187 0 207 2 300 28 367 101 678 377 937 831 99 174 290
584 379 812 l8 22 -57 -20 c-177 -62 -377 -63 -582 -3 -52 16 -54 17 -30 27
157 68 241 128 305 223 54 79 82 161 96 289 16 134 -5 328 -67 631 -123 599
-144 741 -144 968 0 226 32 394 105 560 14 31 25 59 25 61 0 7 -318 3 -490 -5z
m440 -35 c0 -3 -13 -29 -29 -58 -127 -226 -142 -536 -51 -1067 16 -96 43 -254
60 -350 64 -370 79 -630 46 -795 -37 -185 -146 -331 -301 -404 l-47 -22 -57
19 c-31 11 -144 52 -251 92 -107 39 -238 82 -291 96 -388 98 -669 13 -971
-293 -139 -141 -256 -299 -383 -518 -61 -106 -171 -331 -221 -452 -16 -40 -33
-73 -37 -73 -21 0 -451 371 -515 444 -17 20 -52 78 -76 129 -237 487 -213
1096 64 1663 407 832 1284 1400 2395 1550 233 32 665 57 665 39z m-898 -2615
c55 -12 186 -46 291 -76 370 -108 497 -131 662 -120 93 6 200 28 269 55 16 6
30 10 32 9 7 -7 -105 -260 -191 -434 -322 -649 -733 -1028 -1213 -1120 -364
-70 -776 27 -1219 287 -124 73 -232 151 -233 168 0 18 163 334 215 416 135
215 244 353 397 500 199 194 394 302 603 335 85 13 271 3 387 -20z"/>
</g>
</svg>
