<?xml version="1.0" standalone="no"?>
<!DOCTYPE svg PUBLIC "-//W3C//DTD SVG 20010904//EN"
 "http://www.w3.org/TR/2001/REC-SVG-20010904/DTD/svg10.dtd">
<svg version="1.0" xmlns="http://www.w3.org/2000/svg"
 width="413.000000pt" height="413.000000pt" viewBox="0 0 413.000000 413.000000"
 preserveAspectRatio="xMidYMid meet">
<metadata>
Created by potrace 1.11, written by Peter Selinger 2001-2013
</metadata>
<g transform="translate(0.000000,413.000000) scale(0.100000,-0.100000)"
fill="#000000" stroke="none">
<path d="M1840 3573 c-14 -2 -90 -13 -170 -24 -80 -10 -160 -22 -178 -24 -18
-3 -54 -8 -80 -10 -26 -3 -74 -10 -107 -15 -33 -5 -78 -12 -100 -15 -22 -3
-55 -7 -73 -10 -18 -2 -69 -9 -115 -15 -45 -6 -93 -13 -107 -15 -14 -2 -45 -7
-70 -10 -25 -3 -56 -7 -70 -10 -14 -2 -47 -7 -75 -10 -27 -3 -59 -7 -70 -9
-11 -2 -63 -9 -115 -16 -52 -7 -102 -13 -110 -15 -8 -1 -58 -8 -110 -15 -124
-17 -169 -41 -205 -110 -14 -28 -17 -49 -12 -115 4 -44 8 -89 10 -100 3 -11 8
-47 13 -80 4 -33 8 -62 9 -65 0 -3 4 -32 9 -65 4 -33 9 -71 11 -85 5 -29 35
-252 40 -290 1 -14 10 -79 20 -145 9 -66 18 -136 21 -155 2 -19 6 -48 9 -65 3
-16 9 -64 15 -105 5 -41 11 -91 14 -110 9 -62 56 -404 61 -440 3 -19 11 -82
19 -140 9 -58 20 -141 26 -185 6 -44 12 -91 14 -105 2 -14 7 -47 11 -75 3 -27
9 -66 11 -85 19 -143 48 -193 126 -225 43 -17 73 -16 203 5 32 5 60 9 64 8 3
-1 24 1 46 5 22 3 57 9 78 12 20 3 52 7 70 10 17 2 68 9 113 15 44 6 89 12
100 14 10 2 46 7 79 11 71 9 75 10 185 25 84 11 131 18 180 25 14 2 45 6 70
10 25 3 61 8 80 11 201 27 195 28 345 -16 77 -23 169 -50 205 -60 66 -18 469
-134 746 -216 83 -24 168 -44 188 -44 86 0 151 58 181 163 10 34 29 100 42
147 14 47 31 108 39 135 9 28 19 64 23 80 5 17 52 181 106 365 181 625 207
715 225 780 10 36 66 229 124 430 58 201 106 383 106 406 0 53 -45 125 -94
148 -30 14 -179 60 -311 95 -16 5 -187 54 -380 110 -192 57 -411 120 -485 141
-74 21 -206 59 -293 84 -183 53 -223 56 -283 21 -54 -32 -79 -83 -130 -267
-21 -75 -39 -136 -40 -135 -3 3 -13 67 -25 157 -5 41 -12 93 -15 114 -16 114
-107 186 -214 169z"/>
</g>
</svg>
