<?xml version="1.0" standalone="no"?>
<!DOCTYPE svg PUBLIC "-//W3C//DTD SVG 20010904//EN"
 "http://www.w3.org/TR/2001/REC-SVG-20010904/DTD/svg10.dtd">
<svg version="1.0" xmlns="http://www.w3.org/2000/svg"
 width="799.000000pt" height="799.000000pt" viewBox="0 0 799.000000 799.000000"
 preserveAspectRatio="xMidYMid meet">
<metadata>
Created by potrace 1.11, written by Peter Selinger 2001-2013
</metadata>
<g transform="translate(0.000000,799.000000) scale(0.100000,-0.100000)"
fill="#000000" stroke="none">
<path d="M4323 7281 c-145 -50 -226 -159 -247 -331 -10 -83 -36 -285 -40 -310
-3 -14 -10 -68 -16 -120 -6 -52 -13 -106 -16 -120 -2 -14 -7 -47 -10 -75 -3
-27 -8 -61 -10 -75 -2 -14 -7 -53 -10 -87 -4 -34 -10 -60 -14 -58 -4 3 -18 31
-31 62 -12 32 -32 81 -44 108 -12 28 -71 169 -130 314 -91 219 -116 271 -152
311 -90 100 -219 143 -343 115 -29 -6 -296 -112 -405 -160 -16 -8 -331 -138
-700 -290 -369 -153 -683 -283 -700 -290 -16 -8 -255 -107 -530 -220 -706
-292 -736 -305 -770 -328 -49 -33 -95 -88 -123 -147 -24 -48 -27 -67 -26 -150
l1 -95 92 -220 c52 -121 112 -267 136 -325 23 -58 104 -253 180 -435 75 -181
157 -379 182 -440 25 -60 51 -123 58 -140 13 -29 132 -318 275 -665 40 -96 78
-188 85 -205 28 -64 165 -396 165 -400 0 -2 11 -28 24 -57 13 -29 92 -219 176
-423 84 -203 181 -437 215 -520 34 -82 104 -251 155 -375 108 -263 123 -292
185 -349 72 -66 123 -85 235 -85 l95 0 415 173 c228 94 429 178 445 186 17 7
120 50 230 95 377 156 750 311 770 320 11 5 45 19 75 31 30 11 69 27 85 34 17
8 138 59 271 113 l240 99 220 -28 c120 -16 253 -33 294 -38 69 -9 223 -29 495
-66 61 -8 128 -17 150 -19 22 -3 72 -10 110 -15 39 -5 95 -12 125 -16 30 -3
66 -8 80 -10 14 -3 48 -7 75 -10 28 -3 77 -10 110 -15 33 -5 87 -12 120 -16
33 -3 69 -8 80 -10 11 -2 40 -7 65 -10 25 -3 92 -12 149 -20 133 -18 185 -18
248 1 141 42 239 165 257 325 4 30 8 66 10 80 3 14 10 68 16 120 6 52 13 106
15 120 2 14 11 81 20 150 9 69 17 136 20 150 2 14 6 48 10 75 3 28 8 64 10 80
2 17 9 66 14 110 6 44 13 96 16 115 2 19 11 89 20 155 8 66 17 131 20 145 2
14 6 45 9 70 3 25 15 115 26 200 11 85 23 173 25 195 3 22 10 72 15 110 5 39
12 90 15 115 3 25 8 56 10 70 2 14 7 48 10 75 3 28 7 61 10 75 2 14 7 50 10
80 3 30 7 66 9 80 2 14 7 48 11 75 3 28 8 64 10 80 3 17 16 118 30 225 14 107
28 209 30 225 5 37 33 254 41 315 3 25 7 56 9 70 3 14 11 81 20 150 9 69 18
136 20 150 11 78 15 110 20 160 3 30 8 64 10 75 3 11 7 40 9 65 3 25 8 62 11
83 10 71 14 103 35 267 12 91 23 176 25 190 42 265 24 371 -77 473 -80 79
-139 98 -413 132 -27 3 -61 8 -75 10 -14 2 -63 9 -110 15 -99 12 -153 20 -195
26 -16 2 -102 13 -190 24 -88 11 -175 22 -193 25 -18 3 -54 7 -80 10 -26 3
-60 7 -77 10 -41 6 -85 12 -185 25 -47 6 -98 13 -115 15 -44 6 -264 35 -310
41 -22 2 -51 7 -65 9 -14 2 -45 6 -70 9 -25 3 -128 17 -230 30 -102 14 -257
34 -345 46 -88 11 -173 22 -190 24 -16 3 -68 10 -115 16 -47 6 -96 13 -110 15
-14 2 -45 6 -70 9 -25 3 -96 13 -159 21 -147 19 -204 19 -268 -4z"/>
</g>
</svg>
